<svg width="782" height="127" viewBox="0 0 782 127" fill="none" xmlns="http://www.w3.org/2000/svg">
<path d="M233.424 74.8017H241.567C240.454 79.5113 238.331 83.1304 235.199 85.6592C231.974 88.1648 228.158 89.4176 223.75 89.4176C219.759 89.3248 216.43 88.3504 213.762 86.4944C211.048 84.708 209.076 82.6432 207.846 80.3C207.475 79.5345 207.139 78.8037 206.837 78.1077C206.559 77.3885 206.327 76.4837 206.141 75.3933C205.793 73.3517 205.619 69.4309 205.619 63.6309C205.619 57.7382 205.793 53.7942 206.141 51.799C206.512 49.8038 207.081 48.1914 207.846 46.9618C209.076 44.6187 211.048 42.5307 213.762 40.6979C216.43 38.8419 219.759 37.8907 223.75 37.8443C228.645 37.8907 232.635 39.3407 235.721 42.1943C238.807 45.071 240.755 48.6322 241.567 52.8778H233.424C232.798 50.8362 231.661 49.0962 230.014 47.6578C228.297 46.289 226.209 45.5814 223.75 45.535C221.94 45.5814 220.386 45.941 219.087 46.6138C217.764 47.3098 216.697 48.1798 215.885 49.2238C214.888 50.3142 214.226 51.7178 213.902 53.4346C213.53 55.2442 213.345 58.643 213.345 63.6309C213.345 68.6189 213.53 71.9945 213.902 73.7577C214.226 75.5209 214.888 76.9477 215.885 78.0381C216.697 79.0821 217.764 79.9289 219.087 80.5784C220.386 81.344 221.94 81.7268 223.75 81.7268C228.065 81.7268 231.29 79.4185 233.424 74.8017ZM261.849 45.1174V60.499H273.472C276.349 60.4526 278.506 59.6174 279.945 57.9934C281.36 56.4854 282.067 54.6294 282.067 52.4254C282.021 49.7806 281.174 47.8666 279.527 46.6834C278.228 45.6394 276.349 45.1174 273.889 45.1174H261.849ZM254.158 89V38.2619H273.959C278.181 38.2619 281.627 39.3755 284.295 41.6027C287.519 44.1315 289.201 47.739 289.341 52.4254C289.248 59.3158 285.977 64.0021 279.527 66.4845L291.289 89H282.137L271.662 67.3197H261.849V89H254.158ZM303.845 71.8089V38.2619H311.536V70.9737C311.582 74.4305 312.58 77.0637 314.529 78.8733C316.431 80.7756 318.879 81.7268 321.871 81.7268C324.864 81.7268 327.335 80.7756 329.284 78.8733C331.186 77.0637 332.161 74.4305 332.207 70.9737V38.2619H339.898V71.8089C339.805 77.1449 338.077 81.3788 334.713 84.5108C331.325 87.7356 327.045 89.3712 321.871 89.4176C316.791 89.3712 312.545 87.7356 309.135 84.5108C305.655 81.3788 303.892 77.1449 303.845 71.8089ZM382.868 74.8017H391.012C389.898 79.5113 387.775 83.1304 384.643 85.6592C381.419 88.1648 377.602 89.4176 373.194 89.4176C369.204 89.3248 365.875 88.3504 363.207 86.4944C360.492 84.708 358.52 82.6432 357.291 80.3C356.919 79.5345 356.583 78.8037 356.281 78.1077C356.003 77.3885 355.771 76.4837 355.585 75.3933C355.237 73.3517 355.063 69.4309 355.063 63.6309C355.063 57.7382 355.237 53.7942 355.585 51.799C355.957 49.8038 356.525 48.1914 357.291 46.9618C358.52 44.6187 360.492 42.5307 363.207 40.6979C365.875 38.8419 369.204 37.8907 373.194 37.8443C378.089 37.8907 382.08 39.3407 385.165 42.1943C388.251 45.071 390.2 48.6322 391.012 52.8778H382.868C382.242 50.8362 381.105 49.0962 379.458 47.6578C377.741 46.289 375.653 45.5814 373.194 45.535C371.385 45.5814 369.83 45.941 368.531 46.6138C367.209 47.3098 366.141 48.1798 365.329 49.2238C364.332 50.3142 363.671 51.7178 363.346 53.4346C362.975 55.2442 362.789 58.643 362.789 63.6309C362.789 68.6189 362.975 71.9945 363.346 73.7577C363.671 75.5209 364.332 76.9477 365.329 78.0381C366.141 79.0821 367.209 79.9289 368.531 80.5784C369.83 81.344 371.385 81.7268 373.194 81.7268C377.509 81.7268 380.734 79.4185 382.868 74.8017ZM403.602 89V38.2619H411.293V89H403.602ZM429.104 89V38.2619H448.765C453.753 38.3083 457.5 39.5611 460.006 42.0203C462.535 44.5027 463.799 47.7854 463.799 51.8686C463.845 53.9566 463.347 55.9518 462.303 57.8542C461.769 58.759 461.003 59.6174 460.006 60.4294C459.008 61.2878 457.779 62.065 456.317 62.7609V62.9001C459.078 63.6193 461.166 65.0693 462.581 67.2501C463.903 69.5005 464.565 71.9481 464.565 74.5929C464.518 78.9777 463.149 82.446 460.458 84.998C457.79 87.666 454.461 89 450.471 89H429.104ZM448.626 66.4845H436.794V81.7268H448.626C451.48 81.6804 453.568 80.9032 454.89 79.3953C456.213 77.9105 456.874 76.1473 456.874 74.1057C456.874 72.0177 456.213 70.2313 454.89 68.7465C453.568 67.2849 451.48 66.5309 448.626 66.4845ZM447.895 45.1174H436.794V59.629H447.895C450.703 59.629 452.767 58.8982 454.09 57.4366C455.435 56.091 456.108 54.3974 456.108 52.3558C456.108 50.3142 455.435 48.5858 454.09 47.1706C452.767 45.8482 450.703 45.1638 447.895 45.1174ZM479.73 89V38.2619H487.421V81.7268H512.129V89H479.73ZM526.529 89V38.2619H558.928V45.535H534.22V60.0118H555.308V66.8325H534.22V81.7268H558.928V89H526.529ZM597.576 89V38.2619H605.267V81.7268H629.975V89H597.576ZM653.353 70.8345H668.178L660.835 48.667H660.696L653.353 70.8345ZM674.303 89L670.371 77.6553H651.126L647.229 89H639.086L657.529 38.2619H663.967L682.411 89H674.303ZM695.002 89V38.2619H714.664C719.652 38.3083 723.398 39.5611 725.904 42.0203C728.433 44.5027 729.697 47.7854 729.697 51.8686C729.744 53.9566 729.245 55.9518 728.201 57.8542C727.667 58.759 726.902 59.6174 725.904 60.4294C724.906 61.2878 723.677 62.065 722.215 62.7609V62.9001C724.976 63.6193 727.064 65.0693 728.479 67.2501C729.802 69.5005 730.463 71.9481 730.463 74.5929C730.416 78.9777 729.048 82.446 726.356 84.998C723.688 87.666 720.359 89 716.369 89H695.002ZM714.525 66.4845H702.693V81.7268H714.525C717.378 81.6804 719.466 80.9032 720.788 79.3953C722.111 77.9105 722.772 76.1473 722.772 74.1057C722.772 72.0177 722.111 70.2313 720.788 68.7465C719.466 67.2849 717.378 66.5309 714.525 66.4845ZM713.794 45.1174H702.693V59.629H713.794C716.601 59.629 718.666 58.8982 719.988 57.4366C721.334 56.091 722.006 54.3974 722.006 52.3558C722.006 50.3142 721.334 48.5858 719.988 47.1706C718.666 45.8482 716.601 45.1638 713.794 45.1174ZM746.255 76.6809C750.292 79.9985 755.094 81.6804 760.662 81.7268C767.251 81.634 770.592 79.2793 770.684 74.6625C770.731 70.8809 768.527 68.6073 764.072 67.8417C762.031 67.5633 759.792 67.2501 757.356 66.9021C752.995 66.1829 749.677 64.5705 747.403 62.065C745.06 59.4898 743.889 56.3578 743.889 52.669C743.889 48.2378 745.362 44.6651 748.308 41.9507C751.162 39.2595 755.21 37.8907 760.453 37.8443C766.764 37.9835 772.25 39.7351 776.914 43.0991L772.633 49.4326C768.828 46.927 764.641 45.6278 760.07 45.535C757.704 45.535 755.732 46.1266 754.155 47.3098C752.507 48.5394 751.661 50.3722 751.614 52.8082C751.614 54.2698 752.183 55.5922 753.319 56.7754C754.456 57.9818 756.277 58.817 758.783 59.281C760.175 59.513 762.077 59.7798 764.49 60.0814C769.246 60.731 772.761 62.4362 775.034 65.1969C777.285 67.9113 778.41 71.0665 778.41 74.6625C778.155 84.36 772.216 89.2784 760.592 89.4176C753.076 89.4176 746.615 87.0976 741.209 82.4576L746.255 76.6809Z" fill="white"/>
<path d="M233.424 74.8017V73.5517H232.625L232.29 74.2771L233.424 74.8017ZM241.567 74.8017L242.784 75.0893L243.147 73.5517H241.567V74.8017ZM235.199 85.6592L235.966 86.6463L235.975 86.6391L235.984 86.6318L235.199 85.6592ZM223.75 89.4176L223.721 90.6673L223.735 90.6676H223.75V89.4176ZM213.762 86.4944L214.476 85.4683L214.463 85.4591L214.45 85.4503L213.762 86.4944ZM207.846 80.3L206.722 80.8454L206.73 80.8633L206.74 80.8809L207.846 80.3ZM206.837 78.1077L205.671 78.5589L205.68 78.582L205.69 78.6047L206.837 78.1077ZM206.141 75.3933L207.373 75.1835L207.373 75.1832L206.141 75.3933ZM206.141 51.799L204.912 51.5704L204.91 51.5842L206.141 51.799ZM207.846 46.9618L208.907 47.6225L208.932 47.5834L208.953 47.5427L207.846 46.9618ZM213.762 40.6979L214.462 41.7338L214.469 41.729L214.476 41.724L213.762 40.6979ZM223.75 37.8443L223.762 36.5943L223.749 36.5942L223.735 36.5944L223.75 37.8443ZM235.721 42.1943L236.573 41.28L236.57 41.2766L235.721 42.1943ZM241.567 52.8778V54.1278H243.079L242.795 52.643L241.567 52.8778ZM233.424 52.8778L232.229 53.2445L232.5 54.1278H233.424V52.8778ZM230.014 47.6578L230.836 46.7163L230.815 46.6979L230.793 46.6805L230.014 47.6578ZM223.75 45.535L223.773 44.2853L223.746 44.2847L223.718 44.2855L223.75 45.535ZM219.087 46.6138L218.512 45.5038L218.505 45.5077L219.087 46.6138ZM215.885 49.2238L216.807 50.0676L216.841 50.0307L216.872 49.9913L215.885 49.2238ZM213.902 53.4346L215.126 53.6858L215.128 53.6764L215.13 53.667L213.902 53.4346ZM213.902 73.7577L215.131 73.5312L215.128 73.5157L215.125 73.5002L213.902 73.7577ZM215.885 78.0381L216.872 77.2706L216.841 77.2312L216.807 77.1943L215.885 78.0381ZM219.087 80.5784L219.721 79.5015L219.68 79.4774L219.638 79.4565L219.087 80.5784ZM233.424 76.0517H241.567V73.5517H233.424V76.0517ZM240.351 74.514C239.288 79.0101 237.289 82.3652 234.414 84.6867L235.984 86.6318C239.373 83.8957 241.62 80.0124 242.784 75.0893L240.351 74.514ZM234.432 84.6721C231.444 86.9934 227.904 88.1676 223.75 88.1676V90.6676C228.412 90.6676 232.504 89.3362 235.966 86.6463L234.432 84.6721ZM223.779 88.1679C219.977 88.0795 216.901 87.1551 214.476 85.4683L213.049 87.5205C215.96 89.5457 219.542 90.5701 223.721 90.6673L223.779 88.1679ZM214.45 85.4503C211.872 83.754 210.064 81.8367 208.953 79.7192L206.74 80.8809C208.088 83.4498 210.224 85.6621 213.075 87.5386L214.45 85.4503ZM208.971 79.7547C208.607 79.0032 208.278 78.2886 207.984 77.6107L205.69 78.6047C206 79.3187 206.344 80.0657 206.722 80.8454L208.971 79.7547ZM208.003 77.6564C207.765 77.0408 207.551 76.2237 207.373 75.1835L204.909 75.603C205.103 76.7436 205.353 77.7361 205.671 78.5589L208.003 77.6564ZM207.373 75.1832C207.046 73.2614 206.869 69.4434 206.869 63.6309H204.369C204.369 69.4184 204.541 73.4419 204.909 75.6033L207.373 75.1832ZM206.869 63.6309C206.869 57.7223 207.046 53.8854 207.373 52.0138L204.91 51.5842C204.54 53.703 204.369 57.7541 204.369 63.6309H206.869ZM207.37 52.0276C207.723 50.1288 208.25 48.6783 208.907 47.6225L206.785 46.3011C205.911 47.7046 205.301 49.4789 204.912 51.5704L207.37 52.0276ZM208.953 47.5427C210.067 45.4211 211.879 43.478 214.462 41.7338L213.063 39.6619C210.217 41.5833 208.085 43.8162 206.74 46.381L208.953 47.5427ZM214.476 41.724C216.896 40.0406 219.967 39.1384 223.764 39.0942L223.735 36.5944C219.552 36.643 215.965 37.6432 213.049 39.6717L214.476 41.724ZM223.738 39.0942C228.377 39.1382 232.052 40.5035 234.872 43.112L236.57 41.2766C233.219 38.1778 228.913 36.6432 223.762 36.5943L223.738 39.0942ZM234.869 43.1085C237.755 45.7997 239.576 49.1207 240.34 53.1126L242.795 52.643C241.935 48.1437 239.858 44.3424 236.573 41.28L234.869 43.1085ZM241.567 51.6278H233.424V54.1278H241.567V51.6278ZM234.619 52.5112C233.923 50.2414 232.654 48.304 230.836 46.7163L229.192 48.5994C230.668 49.8885 231.673 51.4311 232.229 53.2445L234.619 52.5112ZM230.793 46.6805C228.836 45.1197 226.473 44.3362 223.773 44.2853L223.726 46.7848C225.945 46.8267 227.759 47.4584 229.235 48.6352L230.793 46.6805ZM223.718 44.2855C221.763 44.3356 220.014 44.7259 218.512 45.5038L219.662 47.7238C220.758 47.1562 222.118 46.8273 223.782 46.7846L223.718 44.2855ZM218.505 45.5077C217.045 46.2758 215.833 47.2548 214.898 48.4564L216.872 49.9913C217.561 49.1048 218.483 48.3439 219.669 47.72L218.505 45.5077ZM214.963 48.3801C213.782 49.6709 213.033 51.2993 212.673 53.2022L215.13 53.667C215.419 52.1363 215.993 50.9575 216.807 50.0676L214.963 48.3801ZM212.677 53.1834C212.277 55.1346 212.095 58.6546 212.095 63.6309H214.595C214.595 58.6314 214.784 55.3538 215.126 53.6858L212.677 53.1834ZM212.095 63.6309C212.095 68.6045 212.276 72.1061 212.678 74.0152L215.125 73.5002C214.784 71.8829 214.595 68.6333 214.595 63.6309H212.095ZM212.672 73.9841C213.03 75.9285 213.776 77.5849 214.963 78.8818L216.807 77.1943C215.999 76.3104 215.422 75.1133 215.131 73.5312L212.672 73.9841ZM214.898 78.8055C215.84 80.0155 217.063 80.9768 218.536 81.7004L219.638 79.4565C218.466 78.8809 217.555 78.1486 216.872 77.2706L214.898 78.8055ZM218.452 81.6554C219.979 82.555 221.762 82.9768 223.75 82.9768V80.4768C222.119 80.4768 220.793 80.1331 219.721 79.5015L218.452 81.6554ZM223.75 82.9768C226.144 82.9768 228.289 82.3316 230.132 81.012C231.964 79.7011 233.426 77.7767 234.559 75.3262L232.29 74.2771C231.288 76.4434 230.071 77.9817 228.677 78.9791C227.296 79.9679 225.671 80.4768 223.75 80.4768V82.9768ZM261.849 45.1174V43.8674H260.599V45.1174H261.849ZM261.849 60.499H260.599V61.749H261.849V60.499ZM273.472 60.499V61.749H273.482L273.492 61.7488L273.472 60.499ZM279.945 57.9934L279.033 57.138L279.021 57.1511L279.009 57.1646L279.945 57.9934ZM282.067 52.4254H283.317V52.4144L283.317 52.4035L282.067 52.4254ZM279.527 46.6834L278.744 47.6578L278.77 47.679L278.798 47.6987L279.527 46.6834ZM254.158 89H252.908V90.25H254.158V89ZM254.158 38.2619V37.0119H252.908V38.2619H254.158ZM284.295 41.6027L283.494 42.5623L283.508 42.5745L283.523 42.5863L284.295 41.6027ZM289.341 52.4254L290.59 52.4422L290.591 52.4153L290.59 52.3883L289.341 52.4254ZM279.527 66.4845L279.078 65.318L277.77 65.8213L278.419 67.0633L279.527 66.4845ZM291.289 89V90.25H293.353L292.397 88.4212L291.289 89ZM282.137 89L281.011 89.5438L281.353 90.25H282.137V89ZM271.662 67.3197L272.788 66.7759L272.447 66.0697H271.662V67.3197ZM261.849 67.3197V66.0697H260.599V67.3197H261.849ZM261.849 89V90.25H263.099V89H261.849ZM260.599 45.1174V60.499H263.099V45.1174H260.599ZM261.849 61.749H273.472V59.249H261.849V61.749ZM273.492 61.7488C276.599 61.6987 279.14 60.7869 280.88 58.8222L279.009 57.1646C277.872 58.4478 276.098 59.2064 273.452 59.2491L273.492 61.7488ZM280.856 58.8488C282.504 57.0928 283.317 54.9243 283.317 52.4254H280.817C280.817 54.3345 280.216 55.8779 279.033 57.138L280.856 58.8488ZM283.317 52.4035C283.266 49.4954 282.318 47.1489 280.256 45.6682L278.798 47.6987C280.031 48.5843 280.776 50.0658 280.818 52.4473L283.317 52.4035ZM280.31 45.7091C278.705 44.4192 276.503 43.8674 273.889 43.8674V46.3674C276.194 46.3674 277.751 46.8597 278.744 47.6578L280.31 45.7091ZM273.889 43.8674H261.849V46.3674H273.889V43.8674ZM255.408 89V38.2619H252.908V89H255.408ZM254.158 39.5119H273.959V37.0119H254.158V39.5119ZM273.959 39.5119C277.954 39.5119 281.096 40.5607 283.494 42.5623L285.096 40.6431C282.157 38.1903 278.409 37.0119 273.959 37.0119V39.5119ZM283.523 42.5863C286.412 44.8516 287.961 48.0872 288.091 52.4625L290.59 52.3883C290.442 47.3909 288.627 43.4113 285.066 40.619L283.523 42.5863ZM288.091 52.4086C288.047 55.6559 287.258 58.2935 285.793 60.3925C284.327 62.4918 282.119 64.1473 279.078 65.318L279.976 67.6511C283.384 66.3393 286.037 64.4105 287.843 61.8234C289.649 59.2361 290.541 56.0853 290.59 52.4422L288.091 52.4086ZM278.419 67.0633L290.181 89.5788L292.397 88.4212L280.635 65.9057L278.419 67.0633ZM291.289 87.75H282.137V90.25H291.289V87.75ZM283.263 88.4562L272.788 66.7759L270.537 67.8635L281.011 89.5438L283.263 88.4562ZM271.662 66.0697H261.849V68.5697H271.662V66.0697ZM260.599 67.3197V89H263.099V67.3197H260.599ZM261.849 87.75H254.158V90.25H261.849V87.75ZM303.845 71.8089H302.595L302.595 71.8198L303.845 71.8089ZM303.845 38.2619V37.0119H302.595V38.2619H303.845ZM311.536 38.2619H312.786V37.0119H311.536V38.2619ZM311.536 70.9737H310.286V70.9821L310.286 70.9905L311.536 70.9737ZM314.529 78.8733L315.413 77.9894L315.396 77.973L315.379 77.9573L314.529 78.8733ZM329.284 78.8733L328.422 77.9676L328.416 77.9731L328.411 77.9788L329.284 78.8733ZM332.207 70.9737L333.457 70.9905L333.457 70.9821V70.9737H332.207ZM332.207 38.2619V37.0119H330.957V38.2619H332.207ZM339.898 38.2619H341.148V37.0119H339.898V38.2619ZM339.898 71.8089L341.148 71.8306L341.148 71.8198V71.8089H339.898ZM334.713 84.5108L333.861 83.5959L333.851 83.6055L334.713 84.5108ZM321.871 89.4176L321.86 90.6675L321.871 90.6676L321.883 90.6675L321.871 89.4176ZM309.135 84.5108L309.993 83.6026L309.982 83.592L309.971 83.5817L309.135 84.5108ZM305.095 71.8089V38.2619H302.595V71.8089H305.095ZM303.845 39.5119H311.536V37.0119H303.845V39.5119ZM310.286 38.2619V70.9737H312.786V38.2619H310.286ZM310.286 70.9905C310.336 74.6813 311.41 77.6828 313.678 79.7892L315.379 77.9573C313.75 76.4445 312.829 74.1796 312.786 70.9569L310.286 70.9905ZM313.645 79.7571C315.809 81.9213 318.588 82.9768 321.871 82.9768V80.4768C319.169 80.4768 317.053 79.63 315.413 77.9894L313.645 79.7571ZM321.871 82.9768C325.155 82.9768 327.951 81.9216 330.157 79.7677L328.411 77.9788C326.719 79.6297 324.573 80.4768 321.871 80.4768V82.9768ZM330.145 79.779C332.362 77.6707 333.407 74.6728 333.457 70.9905L330.957 70.9569C330.914 74.1882 330.011 76.4566 328.422 77.9676L330.145 79.779ZM333.457 70.9737V38.2619H330.957V70.9737H333.457ZM332.207 39.5119H339.898V37.0119H332.207V39.5119ZM338.648 38.2619V71.8089H341.148V38.2619H338.648ZM338.648 71.7872C338.56 76.8432 336.936 80.7329 333.861 83.596L335.564 85.4257C339.217 82.0248 341.05 77.4465 341.148 71.8306L338.648 71.7872ZM333.851 83.6055C330.718 86.5877 326.753 88.1238 321.86 88.1676L321.883 90.6675C327.337 90.6186 331.932 88.8835 335.574 85.4161L333.851 83.6055ZM321.883 88.1676C317.089 88.1239 313.155 86.5918 309.993 83.6026L308.276 85.4191C311.935 88.8794 316.492 90.6185 321.86 90.6675L321.883 88.1676ZM309.971 83.5817C306.789 80.7181 305.139 76.8375 305.095 71.798L302.595 71.8198C302.644 77.4523 304.52 82.0396 308.298 85.4399L309.971 83.5817ZM382.868 74.8017V73.5517H382.069L381.734 74.2771L382.868 74.8017ZM391.012 74.8017L392.228 75.0893L392.592 73.5517H391.012V74.8017ZM384.643 85.6592L385.41 86.6463L385.419 86.6391L385.429 86.6318L384.643 85.6592ZM373.194 89.4176L373.165 90.6673L373.18 90.6676H373.194V89.4176ZM363.207 86.4944L363.92 85.4683L363.907 85.4591L363.894 85.4503L363.207 86.4944ZM357.291 80.3L356.166 80.8454L356.175 80.8633L356.184 80.8809L357.291 80.3ZM356.281 78.1077L355.116 78.5589L355.125 78.582L355.135 78.6047L356.281 78.1077ZM355.585 75.3933L356.818 75.1835L356.818 75.1832L355.585 75.3933ZM355.585 51.799L354.356 51.5704L354.354 51.5842L355.585 51.799ZM357.291 46.9618L358.352 47.6225L358.376 47.5834L358.398 47.5427L357.291 46.9618ZM363.207 40.6979L363.906 41.7338L363.913 41.729L363.92 41.724L363.207 40.6979ZM373.194 37.8443L373.206 36.5943L373.193 36.5942L373.18 36.5944L373.194 37.8443ZM385.165 42.1943L386.018 41.28L386.014 41.2766L385.165 42.1943ZM391.012 52.8778V54.1278H392.523L392.239 52.643L391.012 52.8778ZM382.868 52.8778L381.673 53.2445L381.945 54.1278H382.868V52.8778ZM379.458 47.6578L380.28 46.7163L380.259 46.6979L380.237 46.6805L379.458 47.6578ZM373.194 45.535L373.218 44.2853L373.19 44.2847L373.162 44.2855L373.194 45.535ZM368.531 46.6138L367.956 45.5038L367.949 45.5077L368.531 46.6138ZM365.329 49.2238L366.252 50.0676L366.285 50.0307L366.316 49.9913L365.329 49.2238ZM363.346 53.4346L364.57 53.6858L364.572 53.6764L364.574 53.667L363.346 53.4346ZM363.346 73.7577L364.575 73.5312L364.572 73.5157L364.569 73.5002L363.346 73.7577ZM365.329 78.0381L366.316 77.2706L366.285 77.2312L366.252 77.1943L365.329 78.0381ZM368.531 80.5784L369.166 79.5015L369.125 79.4774L369.082 79.4565L368.531 80.5784ZM382.868 76.0517H391.012V73.5517H382.868V76.0517ZM389.795 74.514C388.732 79.0101 386.733 82.3652 383.858 84.6867L385.429 86.6318C388.817 83.8957 391.064 80.0124 392.228 75.0893L389.795 74.514ZM383.876 84.6721C380.889 86.9934 377.348 88.1676 373.194 88.1676V90.6676C377.856 90.6676 381.948 89.3362 385.41 86.6463L383.876 84.6721ZM373.223 88.1679C369.422 88.0795 366.345 87.1551 363.92 85.4683L362.493 87.5205C365.404 89.5457 368.986 90.5701 373.165 90.6673L373.223 88.1679ZM363.894 85.4503C361.316 83.754 359.509 81.8367 358.398 79.7192L356.184 80.8809C357.532 83.4498 359.668 85.6621 362.519 87.5386L363.894 85.4503ZM358.415 79.7547C358.051 79.0032 357.722 78.2886 357.428 77.6107L355.135 78.6047C355.444 79.3187 355.788 80.0657 356.166 80.8454L358.415 79.7547ZM357.447 77.6564C357.209 77.0408 356.995 76.2237 356.818 75.1835L354.353 75.603C354.547 76.7436 354.797 77.7361 355.116 78.5589L357.447 77.6564ZM356.818 75.1832C356.49 73.2614 356.313 69.4434 356.313 63.6309H353.813C353.813 69.4184 353.985 73.4419 354.353 75.6033L356.818 75.1832ZM356.313 63.6309C356.313 57.7223 356.49 53.8854 356.817 52.0138L354.354 51.5842C353.984 53.703 353.813 57.7541 353.813 63.6309H356.313ZM356.814 52.0276C357.168 50.1288 357.694 48.6783 358.352 47.6225L356.23 46.3011C355.356 47.7046 354.746 49.4789 354.357 51.5704L356.814 52.0276ZM358.398 47.5427C359.511 45.4211 361.323 43.478 363.906 41.7338L362.507 39.6619C359.662 41.5833 357.53 43.8162 356.184 46.381L358.398 47.5427ZM363.92 41.724C366.34 40.0406 369.411 39.1384 373.209 39.0942L373.18 36.5944C368.997 36.643 365.409 37.6432 362.493 39.6717L363.92 41.724ZM373.182 39.0942C377.821 39.1382 381.496 40.5035 384.317 43.112L386.014 41.2766C382.663 38.1778 378.357 36.6432 373.206 36.5943L373.182 39.0942ZM384.313 43.1085C387.199 45.7997 389.02 49.1207 389.784 53.1126L392.239 52.643C391.379 48.1437 389.302 44.3424 386.018 41.28L384.313 43.1085ZM391.012 51.6278H382.868V54.1278H391.012V51.6278ZM384.064 52.5112C383.367 50.2414 382.098 48.304 380.28 46.7163L378.636 48.5994C380.112 49.8885 381.117 51.4311 381.673 53.2445L384.064 52.5112ZM380.237 46.6805C378.28 45.1197 375.917 44.3362 373.218 44.2853L373.171 46.7848C375.39 46.8267 377.203 47.4584 378.679 48.6352L380.237 46.6805ZM373.162 44.2855C371.207 44.3356 369.458 44.7259 367.956 45.5038L369.106 47.7238C370.202 47.1562 371.562 46.8273 373.226 46.7846L373.162 44.2855ZM367.949 45.5077C366.489 46.2758 365.277 47.2548 364.343 48.4564L366.316 49.9913C367.006 49.1048 367.928 48.3439 369.113 47.72L367.949 45.5077ZM364.407 48.3801C363.226 49.6709 362.478 51.2993 362.118 53.2022L364.574 53.667C364.864 52.1363 365.437 50.9575 366.252 50.0676L364.407 48.3801ZM362.121 53.1834C361.721 55.1346 361.539 58.6546 361.539 63.6309H364.039C364.039 58.6314 364.228 55.3538 364.57 53.6858L362.121 53.1834ZM361.539 63.6309C361.539 68.6045 361.721 72.1061 362.123 74.0152L364.569 73.5002C364.229 71.8829 364.039 68.6333 364.039 63.6309H361.539ZM362.116 73.9841C362.475 75.9285 363.221 77.5849 364.407 78.8818L366.252 77.1943C365.443 76.3104 364.867 75.1133 364.575 73.5312L362.116 73.9841ZM364.343 78.8055C365.284 80.0155 366.507 80.9768 367.98 81.7004L369.082 79.4565C367.91 78.8809 366.999 78.1486 366.316 77.2706L364.343 78.8055ZM367.896 81.6554C369.423 82.555 371.206 82.9768 373.194 82.9768V80.4768C371.563 80.4768 370.237 80.1331 369.166 79.5015L367.896 81.6554ZM373.194 82.9768C375.589 82.9768 377.733 82.3316 379.577 81.012C381.408 79.7011 382.87 77.7767 384.003 75.3262L381.734 74.2771C380.732 76.4434 379.515 77.9817 378.122 78.9791C376.74 79.9679 375.115 80.4768 373.194 80.4768V82.9768ZM403.602 89H402.352V90.25H403.602V89ZM403.602 38.2619V37.0119H402.352V38.2619H403.602ZM411.293 38.2619H412.543V37.0119H411.293V38.2619ZM411.293 89V90.25H412.543V89H411.293ZM404.852 89V38.2619H402.352V89H404.852ZM403.602 39.5119H411.293V37.0119H403.602V39.5119ZM410.043 38.2619V89H412.543V38.2619H410.043ZM411.293 87.75H403.602V90.25H411.293V87.75ZM429.104 89H427.854V90.25H429.104V89ZM429.104 38.2619V37.0119H427.854V38.2619H429.104ZM448.765 38.2619L448.777 37.0119H448.765V38.2619ZM460.006 42.0203L460.881 41.1282L460.881 41.1282L460.006 42.0203ZM463.799 51.8686H462.549V51.8825L462.549 51.8964L463.799 51.8686ZM462.303 57.8542L463.379 58.4892L463.389 58.4725L463.398 58.4555L462.303 57.8542ZM460.006 60.4294L459.217 59.4599L459.203 59.4707L459.19 59.4818L460.006 60.4294ZM456.317 62.7609L455.78 61.6324L455.067 61.9717V62.7609H456.317ZM456.317 62.9001H455.067V63.8662L456.002 64.1098L456.317 62.9001ZM462.581 67.2501L463.659 66.6168L463.645 66.5929L463.629 66.5697L462.581 67.2501ZM464.565 74.5929L465.815 74.6061V74.5929H464.565ZM460.458 84.998L459.598 84.091L459.586 84.1024L459.574 84.1141L460.458 84.998ZM448.626 66.4845L448.647 65.2347L448.636 65.2345H448.626V66.4845ZM436.794 66.4845V65.2345H435.544V66.4845H436.794ZM436.794 81.7268H435.544V82.9768H436.794V81.7268ZM448.626 81.7268V82.9768H448.636L448.647 82.9767L448.626 81.7268ZM454.89 79.3953L453.957 78.5639L453.95 78.5711L454.89 79.3953ZM454.89 68.7465L455.824 67.9151L455.817 67.9079L454.89 68.7465ZM447.895 45.1174L447.916 43.8676L447.906 43.8674H447.895V45.1174ZM436.794 45.1174V43.8674H435.544V45.1174H436.794ZM436.794 59.629H435.544V60.879H436.794V59.629ZM454.09 57.4366L453.206 56.5527L453.184 56.5748L453.163 56.5979L454.09 57.4366ZM454.09 47.1706L454.996 46.3093L454.985 46.2979L454.974 46.2868L454.09 47.1706ZM430.354 89V38.2619H427.854V89H430.354ZM429.104 39.5119H448.765V37.0119H429.104V39.5119ZM448.754 39.5118C453.555 39.5565 456.937 40.7602 459.13 42.9124L460.881 41.1282C458.063 38.362 453.952 37.0601 448.777 37.0119L448.754 39.5118ZM459.13 42.9123C461.382 45.1234 462.549 48.0654 462.549 51.8686H465.049C465.049 47.5054 463.687 43.8819 460.881 41.1282L459.13 42.9123ZM462.549 51.8964C462.591 53.756 462.149 55.5351 461.207 57.2528L463.398 58.4555C464.544 56.3684 465.1 54.1572 465.049 51.8408L462.549 51.8964ZM461.226 57.2192C460.782 57.9713 460.124 58.7212 459.217 59.4599L460.795 61.3988C461.882 60.5136 462.756 59.5467 463.379 58.4892L461.226 57.2192ZM459.19 59.4818C458.294 60.2535 457.163 60.9736 455.78 61.6324L456.854 63.8895C458.394 63.1563 459.723 62.3221 460.821 61.3769L459.19 59.4818ZM455.067 62.7609V62.9001H457.567V62.7609H455.067ZM456.002 64.1098C458.493 64.7586 460.304 66.0379 461.532 67.9306L463.629 66.5697C462.027 64.1007 459.663 62.4801 456.632 61.6905L456.002 64.1098ZM461.503 67.8834C462.711 69.9392 463.315 72.1677 463.315 74.5929H465.815C465.815 71.7285 465.095 69.0619 463.659 66.6168L461.503 67.8834ZM463.315 74.5797C463.271 78.6927 461.999 81.8141 459.598 84.091L461.318 85.9051C464.3 83.078 465.765 79.2626 465.814 74.6061L463.315 74.5797ZM459.574 84.1141C457.155 86.5331 454.151 87.75 450.471 87.75V90.25C454.771 90.25 458.425 88.7989 461.342 85.8819L459.574 84.1141ZM450.471 87.75H429.104V90.25H450.471V87.75ZM448.626 65.2345H436.794V67.7345H448.626V65.2345ZM435.544 66.4845V81.7268H438.044V66.4845H435.544ZM436.794 82.9768H448.626V80.4768H436.794V82.9768ZM448.647 82.9767C451.7 82.927 454.19 82.0893 455.83 80.2194L453.95 78.5711C452.945 79.7172 451.26 80.4339 448.606 80.477L448.647 82.9767ZM455.824 80.2266C457.356 78.5062 458.124 76.4448 458.124 74.1057H455.624C455.624 75.8498 455.069 77.3147 453.957 78.5639L455.824 80.2266ZM458.124 74.1057C458.124 71.7279 457.361 69.6411 455.824 67.9152L453.957 69.5779C455.064 70.8215 455.624 72.3074 455.624 74.1057H458.124ZM455.817 67.9079C454.175 66.0927 451.689 65.2842 448.647 65.2347L448.606 67.7344C451.27 67.7777 452.961 68.4772 453.963 69.5852L455.817 67.9079ZM447.895 43.8674H436.794V46.3674H447.895V43.8674ZM435.544 45.1174V59.629H438.044V45.1174H435.544ZM436.794 60.879H447.895V58.379H436.794V60.879ZM447.895 60.879C450.902 60.879 453.371 60.0943 455.017 58.2752L453.163 56.5979C452.164 57.7021 450.503 58.379 447.895 58.379V60.879ZM454.974 58.3205C456.572 56.7222 457.358 54.7022 457.358 52.3558H454.858C454.858 54.0926 454.299 55.4598 453.206 56.5527L454.974 58.3205ZM457.358 52.3558C457.358 50.0097 456.573 47.9683 454.996 46.3093L453.184 48.032C454.298 49.2034 454.858 50.6187 454.858 52.3558H457.358ZM454.974 46.2868C453.329 44.6425 450.888 43.9167 447.916 43.8676L447.875 46.3673C450.517 46.411 452.205 47.0539 453.206 48.0545L454.974 46.2868ZM479.73 89H478.48V90.25H479.73V89ZM479.73 38.2619V37.0119H478.48V38.2619H479.73ZM487.421 38.2619H488.671V37.0119H487.421V38.2619ZM487.421 81.7268H486.171V82.9768H487.421V81.7268ZM512.129 81.7268H513.379V80.4768H512.129V81.7268ZM512.129 89V90.25H513.379V89H512.129ZM480.98 89V38.2619H478.48V89H480.98ZM479.73 39.5119H487.421V37.0119H479.73V39.5119ZM486.171 38.2619V81.7268H488.671V38.2619H486.171ZM487.421 82.9768H512.129V80.4768H487.421V82.9768ZM510.879 81.7268V89H513.379V81.7268H510.879ZM512.129 87.75H479.73V90.25H512.129V87.75ZM526.529 89H525.279V90.25H526.529V89ZM526.529 38.2619V37.0119H525.279V38.2619H526.529ZM558.928 38.2619H560.178V37.0119H558.928V38.2619ZM558.928 45.535V46.785H560.178V45.535H558.928ZM534.22 45.535V44.285H532.97V45.535H534.22ZM534.22 60.0118H532.97V61.2618H534.22V60.0118ZM555.308 60.0118H556.558V58.7618H555.308V60.0118ZM555.308 66.8325V68.0825H556.558V66.8325H555.308ZM534.22 66.8325V65.5825H532.97V66.8325H534.22ZM534.22 81.7268H532.97V82.9768H534.22V81.7268ZM558.928 81.7268H560.178V80.4768H558.928V81.7268ZM558.928 89V90.25H560.178V89H558.928ZM527.779 89V38.2619H525.279V89H527.779ZM526.529 39.5119H558.928V37.0119H526.529V39.5119ZM557.678 38.2619V45.535H560.178V38.2619H557.678ZM558.928 44.285H534.22V46.785H558.928V44.285ZM532.97 45.535V60.0118H535.47V45.535H532.97ZM534.22 61.2618H555.308V58.7618H534.22V61.2618ZM554.058 60.0118V66.8325H556.558V60.0118H554.058ZM555.308 65.5825H534.22V68.0825H555.308V65.5825ZM532.97 66.8325V81.7268H535.47V66.8325H532.97ZM534.22 82.9768H558.928V80.4768H534.22V82.9768ZM557.678 81.7268V89H560.178V81.7268H557.678ZM558.928 87.75H526.529V90.25H558.928V87.75ZM597.576 89H596.326V90.25H597.576V89ZM597.576 38.2619V37.0119H596.326V38.2619H597.576ZM605.267 38.2619H606.517V37.0119H605.267V38.2619ZM605.267 81.7268H604.017V82.9768H605.267V81.7268ZM629.975 81.7268H631.225V80.4768H629.975V81.7268ZM629.975 89V90.25H631.225V89H629.975ZM598.826 89V38.2619H596.326V89H598.826ZM597.576 39.5119H605.267V37.0119H597.576V39.5119ZM604.017 38.2619V81.7268H606.517V38.2619H604.017ZM605.267 82.9768H629.975V80.4768H605.267V82.9768ZM628.725 81.7268V89H631.225V81.7268H628.725ZM629.975 87.75H597.576V90.25H629.975V87.75ZM653.353 70.8345L652.167 70.4415L651.623 72.0845H653.353V70.8345ZM668.178 70.8345V72.0845H669.909L669.365 70.4415L668.178 70.8345ZM660.835 48.667L662.022 48.274L661.738 47.417H660.835V48.667ZM660.696 48.667V47.417H659.793L659.51 48.274L660.696 48.667ZM674.303 89L673.122 89.4094L673.413 90.25H674.303V89ZM670.371 77.6553L671.552 77.2459L671.26 76.4053H670.371V77.6553ZM651.126 77.6553V76.4053H650.234L649.944 77.2491L651.126 77.6553ZM647.229 89V90.25H648.121L648.411 89.4062L647.229 89ZM639.086 89L637.911 88.573L637.301 90.25H639.086V89ZM657.529 38.2619V37.0119H656.654L656.355 37.8348L657.529 38.2619ZM663.967 38.2619L665.142 37.8348L664.843 37.0119H663.967V38.2619ZM682.411 89V90.25H684.196L683.586 88.573L682.411 89ZM653.353 72.0845H668.178V69.5845H653.353V72.0845ZM669.365 70.4415L662.022 48.274L659.649 49.0601L666.992 71.2276L669.365 70.4415ZM660.835 47.417H660.696V49.917H660.835V47.417ZM659.51 48.274L652.167 70.4415L654.54 71.2276L661.883 49.0601L659.51 48.274ZM675.484 88.5906L671.552 77.2459L669.189 78.0647L673.122 89.4094L675.484 88.5906ZM670.371 76.4053H651.126V78.9053H670.371V76.4053ZM649.944 77.2491L646.047 88.5938L648.411 89.4062L652.308 78.0614L649.944 77.2491ZM647.229 87.75H639.086V90.25H647.229V87.75ZM640.26 89.427L658.704 38.6889L656.355 37.8348L637.911 88.573L640.26 89.427ZM657.529 39.5119H663.967V37.0119H657.529V39.5119ZM662.793 38.6889L681.236 89.427L683.586 88.573L665.142 37.8348L662.793 38.6889ZM682.411 87.75H674.303V90.25H682.411V87.75ZM695.002 89H693.752V90.25H695.002V89ZM695.002 38.2619V37.0119H693.752V38.2619H695.002ZM714.664 38.2619L714.675 37.0119H714.664V38.2619ZM725.904 42.0203L726.78 41.1282L726.78 41.1282L725.904 42.0203ZM729.697 51.8686H728.447V51.8825L728.448 51.8964L729.697 51.8686ZM728.201 57.8542L729.278 58.4892L729.287 58.4725L729.297 58.4555L728.201 57.8542ZM725.904 60.4294L725.115 59.4599L725.102 59.4707L725.089 59.4818L725.904 60.4294ZM722.215 62.7609L721.678 61.6324L720.965 61.9717V62.7609H722.215ZM722.215 62.9001H720.965V63.8662L721.9 64.1098L722.215 62.9001ZM728.479 67.2501L729.557 66.6168L729.543 66.5929L729.528 66.5697L728.479 67.2501ZM730.463 74.5929L731.713 74.6061V74.5929H730.463ZM726.356 84.998L725.496 84.091L725.484 84.1024L725.473 84.1141L726.356 84.998ZM714.525 66.4845L714.545 65.2347L714.535 65.2345H714.525V66.4845ZM702.693 66.4845V65.2345H701.443V66.4845H702.693ZM702.693 81.7268H701.443V82.9768H702.693V81.7268ZM714.525 81.7268V82.9768H714.535L714.545 82.9767L714.525 81.7268ZM720.789 79.3953L719.855 78.5639L719.849 78.5711L720.789 79.3953ZM720.789 68.7465L721.722 67.9151L721.715 67.9079L720.789 68.7465ZM713.794 45.1174L713.814 43.8676L713.804 43.8674H713.794V45.1174ZM702.693 45.1174V43.8674H701.443V45.1174H702.693ZM702.693 59.629H701.443V60.879H702.693V59.629ZM719.988 57.4366L719.104 56.5527L719.082 56.5748L719.061 56.5979L719.988 57.4366ZM719.988 47.1706L720.894 46.3093L720.883 46.2979L720.872 46.2868L719.988 47.1706ZM696.252 89V38.2619H693.752V89H696.252ZM695.002 39.5119H714.664V37.0119H695.002V39.5119ZM714.652 39.5118C719.453 39.5565 722.836 40.7602 725.029 42.9124L726.78 41.1282C723.961 38.362 719.85 37.0601 714.675 37.0119L714.652 39.5118ZM725.028 42.9123C727.281 45.1234 728.447 48.0654 728.447 51.8686H730.947C730.947 47.5054 729.585 43.8819 726.78 41.1282L725.028 42.9123ZM728.448 51.8964C728.489 53.756 728.048 55.5351 727.105 57.2528L729.297 58.4555C730.442 56.3684 730.998 54.1572 730.947 51.8408L728.448 51.8964ZM727.124 57.2192C726.681 57.9713 726.023 58.7212 725.115 59.4599L726.693 61.3988C727.781 60.5136 728.654 59.5467 729.278 58.4892L727.124 57.2192ZM725.089 59.4818C724.192 60.2535 723.061 60.9736 721.678 61.6324L722.753 63.8895C724.292 63.1563 725.621 62.3221 726.719 61.3769L725.089 59.4818ZM720.965 62.7609V62.9001H723.465V62.7609H720.965ZM721.9 64.1098C724.391 64.7586 726.202 66.0379 727.431 67.9306L729.528 66.5697C727.926 64.1007 725.561 62.4801 722.53 61.6905L721.9 64.1098ZM727.402 67.8834C728.61 69.9392 729.213 72.1677 729.213 74.5929H731.713C731.713 71.7285 730.994 69.0619 729.557 66.6168L727.402 67.8834ZM729.213 74.5797C729.169 78.6927 727.897 81.8141 725.496 84.091L727.217 85.9051C730.198 83.078 731.664 79.2626 731.713 74.6061L729.213 74.5797ZM725.473 84.1141C723.054 86.5331 720.049 87.75 716.369 87.75V90.25C720.67 90.25 724.323 88.7989 727.24 85.8819L725.473 84.1141ZM716.369 87.75H695.002V90.25H716.369V87.75ZM714.525 65.2345H702.693V67.7345H714.525V65.2345ZM701.443 66.4845V81.7268H703.943V66.4845H701.443ZM702.693 82.9768H714.525V80.4768H702.693V82.9768ZM714.545 82.9767C717.598 82.927 720.089 82.0893 721.728 80.2194L719.849 78.5711C718.844 79.7172 717.158 80.4339 714.504 80.477L714.545 82.9767ZM721.722 80.2266C723.254 78.5062 724.022 76.4448 724.022 74.1057H721.522C721.522 75.8498 720.968 77.3147 719.855 78.5639L721.722 80.2266ZM724.022 74.1057C724.022 71.7279 723.259 69.6411 721.722 67.9152L719.855 69.5779C720.963 70.8215 721.522 72.3074 721.522 74.1057H724.022ZM721.715 67.9079C720.073 66.0927 717.588 65.2842 714.545 65.2347L714.504 67.7344C717.169 67.7777 718.859 68.4772 719.862 69.5852L721.715 67.9079ZM713.794 43.8674H702.693V46.3674H713.794V43.8674ZM701.443 45.1174V59.629H703.943V45.1174H701.443ZM702.693 60.879H713.794V58.379H702.693V60.879ZM713.794 60.879C716.801 60.879 719.269 60.0943 720.915 58.2752L719.061 56.5979C718.062 57.7021 716.401 58.379 713.794 58.379V60.879ZM720.872 58.3205C722.47 56.7222 723.256 54.7022 723.256 52.3558H720.756C720.756 54.0926 720.197 55.4598 719.104 56.5527L720.872 58.3205ZM723.256 52.3558C723.256 50.0097 722.471 47.9683 720.894 46.3093L719.082 48.032C720.196 49.2034 720.756 50.6187 720.756 52.3558H723.256ZM720.872 46.2868C719.228 44.6425 716.786 43.9167 713.814 43.8676L713.773 46.3673C716.416 46.411 718.104 47.0539 719.104 48.0545L720.872 46.2868ZM746.255 76.6809L747.049 75.7152L746.112 74.945L745.314 75.8585L746.255 76.6809ZM760.662 81.7268L760.652 82.9768L760.666 82.9769L760.68 82.9767L760.662 81.7268ZM770.684 74.6625L771.934 74.6876L771.934 74.6778L770.684 74.6625ZM764.072 67.8417L764.284 66.6098L764.263 66.6061L764.241 66.6032L764.072 67.8417ZM757.356 66.9021L757.153 68.1355L757.166 68.1377L757.179 68.1396L757.356 66.9021ZM747.403 62.065L748.329 61.225L748.328 61.2237L747.403 62.065ZM748.308 41.9507L749.155 42.87L749.16 42.8651L749.166 42.86L748.308 41.9507ZM760.453 37.8443L760.481 36.5946L760.462 36.5942L760.442 36.5943L760.453 37.8443ZM776.914 43.0991L777.949 43.799L778.628 42.7946L777.645 42.0853L776.914 43.0991ZM772.633 49.4326L771.946 50.4766L772.977 51.1559L773.669 50.1326L772.633 49.4326ZM760.07 45.535L760.096 44.2853L760.083 44.285H760.07V45.535ZM754.155 47.3098L754.902 48.3115L754.905 48.3098L754.155 47.3098ZM751.614 52.8082L750.364 52.7844L750.364 52.7963V52.8082H751.614ZM753.319 56.7754L754.229 55.9181L754.221 55.9094L753.319 56.7754ZM758.783 59.281L758.555 60.5101L758.566 60.5121L758.577 60.514L758.783 59.281ZM764.49 60.0814L764.659 58.8429L764.652 58.8419L764.645 58.841L764.49 60.0814ZM775.034 65.1969L774.07 65.9916L774.072 65.9947L775.034 65.1969ZM778.41 74.6625L779.66 74.6954L779.66 74.6789V74.6625H778.41ZM760.592 89.4176V90.6676H760.6L760.607 90.6675L760.592 89.4176ZM741.209 82.4576L740.268 81.6353L739.438 82.5849L740.395 83.4061L741.209 82.4576ZM745.461 77.6466C749.734 81.1581 754.818 82.9282 760.652 82.9768L760.672 80.4769C755.37 80.4327 750.849 78.8388 747.049 75.7152L745.461 77.6466ZM760.68 82.9767C764.085 82.9288 766.862 82.2995 768.829 80.9129C770.87 79.4742 771.881 77.3342 771.934 74.6876L769.435 74.6374C769.395 76.6075 768.689 77.9533 767.389 78.8694C766.016 79.8376 763.828 80.4321 760.644 80.477L760.68 82.9767ZM771.934 74.6778C771.961 72.5256 771.339 70.67 769.964 69.2511C768.614 67.8582 766.665 67.0189 764.284 66.6098L763.861 69.0737C765.935 69.4301 767.315 70.1105 768.169 70.9911C768.997 71.8458 769.455 73.0177 769.435 74.6471L771.934 74.6778ZM764.241 66.6032C762.203 66.3252 759.967 66.0124 757.533 65.6647L757.179 68.1396C759.617 68.4879 761.859 68.8014 763.904 69.0803L764.241 66.6032ZM757.56 65.6688C753.39 64.9813 750.362 63.4653 748.329 61.225L746.478 62.9049C748.992 65.6758 752.599 67.3846 757.153 68.1355L757.56 65.6688ZM748.328 61.2237C746.207 58.8932 745.139 56.0669 745.139 52.669H742.639C742.639 56.6487 743.913 60.0863 746.479 62.9062L748.328 61.2237ZM745.139 52.669C745.139 48.5459 746.494 45.3212 749.155 42.87L747.461 41.0313C744.229 44.0089 742.639 47.9297 742.639 52.669H745.139ZM749.166 42.86C751.722 40.4493 755.428 39.1388 760.464 39.0942L760.442 36.5943C754.992 36.6426 750.602 38.0697 747.451 41.0413L749.166 42.86ZM760.426 39.094C766.509 39.2282 771.744 40.9114 776.182 44.1128L777.645 42.0853C772.756 38.5588 767.018 36.7388 760.481 36.5946L760.426 39.094ZM775.878 42.3991L771.598 48.7327L773.669 50.1326L777.949 43.799L775.878 42.3991ZM773.321 48.3887C769.318 45.7529 764.901 44.3829 760.096 44.2853L760.045 46.7848C764.381 46.8728 768.339 48.1011 771.946 50.4766L773.321 48.3887ZM760.07 44.285C757.489 44.285 755.239 44.9339 753.405 46.3098L754.905 48.3098C756.225 47.3194 757.919 46.785 760.07 46.785V44.285ZM753.407 46.3081C751.391 47.8128 750.417 50.0426 750.364 52.7844L752.864 52.832C752.904 50.7018 753.624 49.2661 754.902 48.3115L753.407 46.3081ZM750.364 52.8082C750.364 54.6332 751.087 56.2564 752.418 57.6414L754.221 55.9094C753.278 54.928 752.864 53.9064 752.864 52.8082H750.364ZM752.41 57.6326C753.803 59.1111 755.92 60.0221 758.555 60.5101L759.01 58.0519C756.634 57.6118 755.109 56.8525 754.229 55.9181L752.41 57.6326ZM758.577 60.514C759.994 60.75 761.916 61.0193 764.335 61.3217L764.645 58.841C762.239 58.5403 760.356 58.2759 758.988 58.048L758.577 60.514ZM764.321 61.3199C768.874 61.9417 772.056 63.5467 774.07 65.9916L775.999 64.4023C773.466 61.3256 769.618 59.5202 764.659 58.8429L764.321 61.3199ZM774.072 65.9947C776.133 68.48 777.16 71.3515 777.16 74.6625H779.66C779.66 70.7815 778.437 67.3426 775.997 64.3991L774.072 65.9947ZM777.16 74.6296C777.04 79.2179 775.59 82.4897 772.967 84.6617C770.305 86.8661 766.242 88.0998 760.578 88.1677L760.607 90.6675C766.566 90.5961 771.284 89.3011 774.561 86.5872C777.878 83.8408 779.525 79.8046 779.66 74.6954L777.16 74.6296ZM760.592 88.1676C753.357 88.1676 747.189 85.9432 742.023 81.5091L740.395 83.4061C746.04 88.252 752.795 90.6676 760.592 90.6676V88.1676ZM742.15 83.28L747.196 77.5032L745.314 75.8585L740.268 81.6353L742.15 83.28Z" fill="black"/>
<path fill-rule="evenodd" clip-rule="evenodd" d="M39 8C39 3.58172 42.5817 0 47 0H134C138.418 0 142 3.58172 142 8V32C142 36.4183 138.418 40 134 40H48C43.5817 40 40 43.5817 40 48V77C40 81.4183 43.5817 85 48 85H134C138.418 85 142 88.5817 142 93V117C142 121.418 138.418 125 134 125H47C42.5817 125 39 121.418 39 117V96C39 91.5817 35.4183 88 31 88H8C3.58172 88 0 84.4183 0 80V46C0 41.5817 3.58172 38 8 38H31C35.4183 38 39 34.4183 39 30V8Z" fill="white"/>
<path fill-rule="evenodd" clip-rule="evenodd" d="M38 0H144V41H40V85H144V127H38V88H0V38H38V0Z" fill="white"/>
</svg>
